# xmcd
#
# Track frame offsets:
#	150
#	15273
#	27648
#	47300
#	62898
#	79190
#	94260
#	109650
#	123643
#	136924
#	151794
#	165797
#
# Disc length: 2452 seconds
# Revision: 0
# Processed by: cddbd v1.5.2PL0 Copyright (c) Steve Scherf et al.
# Submitted via: dBpowerAMP V12.0
#
DISCID=8909920c
DTITLE=Mick Pealing - Grand Hotel
DYEAR=2007
DGENRE=Blues
TTITLE0=Grand Hotel
TTITLE1=Junkyard Mind
TTITLE2=Angel Made Of Tin
TTITLE3=Judgement Tree
TTITLE4=Smile
TTITLE5=Anxiety
TTITLE6=Shortcut
TTITLE7=Temporary Lovin
TTITLE8=Walk To The River
TTITLE9=Mona Drives
TTITLE10=Piece Of The Sky
TTITLE11=Nine Years Old Forever
EXTD=
EXTT0=
EXTT1=
EXTT2=
EXTT3=
EXTT4=
EXTT5=
EXTT6=
EXTT7=
EXTT8=
EXTT9=
EXTT10=
EXTT11=
PLAYORDER=
